<?xml version="1.0" encoding="utf-8"?>
<!-- Generator: Adobe Illustrator 19.1.0, SVG Export Plug-In . SVG Version: 6.00 Build 0)  -->
<svg version="1.1" id="Layer_1" xmlns="http://www.w3.org/2000/svg" xmlns:xlink="http://www.w3.org/1999/xlink" x="0px" y="0px"
	 viewBox="0 0 95 101.9" style="enable-background:new 0 0 95 101.9;" xml:space="preserve">
<style type="text/css">
	.st0{fill:#C1272D;stroke:#000000;stroke-width:3;stroke-linecap:round;stroke-linejoin:round;stroke-miterlimit:10;}
	.st1{opacity:0.31;}
	.st2{fill:#FF0000;}
	.st3{fill:#FFFFFF;}
	.st4{opacity:0.61;fill:#C1272D;}
	.st5{fill:none;stroke:#000000;stroke-width:3;stroke-miterlimit:10;}
	.st6{fill:#E4B69D;}
	.st7{opacity:0.11;}
	.st8{fill:#F1DBCB;}
	.st9{opacity:0.23;}
	.st10{fill:#B08874;}
	.st11{fill:none;stroke:#000000;stroke-width:3;stroke-linecap:round;stroke-linejoin:round;stroke-miterlimit:10;}
</style>
<g>
	<g>
		<path class="st0" d="M70.4,100.4c0.7-0.7,1.5-1.3,2.4-1.6c2.2-0.9,5.7,0.3,7.8-1.1c2-1.3,2.2-5,4-6.8c1.8-1.8,5.5-2,6.8-4
			c1.4-2.1,0.2-5.6,1.1-7.8c0.2-0.6,0.6-1.2,1.1-1.7l0-0.2c-0.7,0.7-1.5,1.3-2.4,1.6c-2.2,0.9-5.7-0.3-7.8,1.1c-2,1.3-2.2,5-4,6.8
			c-1.8,1.8-5.5,2-6.8,4c-1.4,2.1-0.2,5.6-1.1,7.8c-0.2,0.6-0.6,1.2-1.1,1.7"/>
	</g>
	<g class="st1">
		<path class="st2" d="M70.1,100.1c0.2,0.2,2.2-1.4,2.4-1.6c2.6-2.3,2.8-3.5,4.3-4.8c3.1-2.8,6.1-0.9,7.6-3.1
			c1.6-2.4-1.7-5.3-0.1-7.6c1.5-2.2,5.4-1,8-4.2c0.6-0.7,0.9-1.3,1.1-1.7l0-0.2c-0.7,0.7-1.5,1.3-2.4,1.6c-2.2,0.9-5.7-0.3-7.8,1.1
			c-2,1.3-2.2,5-4,6.8c-2.9,2.9-5.5,1.5-6.8,4C71,92.8,73,95,71.1,98.2C70.6,99.1,69.9,99.9,70.1,100.1z"/>
	</g>
	
		<rect x="77.9" y="84.2" transform="matrix(0.7071 -0.7071 0.7071 0.7071 -39.0649 84.559)" class="st3" width="9.2" height="10.5"/>
	<path class="st2" d="M90,93.3l-3.3,3.3c-0.9,0.9-2,1.2-2.6,0.7l-3-3c0.1,0.1,0.3,0.2,0.5,0.1c0.4,0,0.9-0.2,1.1-0.3
		c0.8-0.4,0.8-0.9,1.5-1.3c0.7-0.5,1.1-0.2,1.6-0.6c0.3-0.2,0.6-0.6,0.7-1.5c0-0.3,0-0.7,0.3-1.1c0.4-0.5,1-0.6,1.2-1
		c0.1-0.2,0.1-0.5-0.3-0.8l3,3C91.2,91.3,90.9,92.5,90,93.3z"/>
	<path class="st4" d="M90.5,94.3l-3.3,3.3c-0.9,0.9-2,1.2-2.6,0.7l-3-3c0.1,0.1,0.3,0.2,0.5,0.1c0.4,0,0.9-0.2,1.1-0.3
		c0.8-0.4,0.8-0.9,1.5-1.3c0.7-0.5,1.1-0.2,1.6-0.6c0.3-0.2,0.6-0.6,0.7-1.5c0-0.3,0-0.7,0.3-1.1c0.4-0.5,1-0.6,1.2-1
		c0.1-0.2,0.1-0.5-0.3-0.8l3,3C91.7,92.2,91.4,93.4,90.5,94.3z"/>
	<path class="st5" d="M88.6,95.5L88.6,95.5c-1.8,1.8-4.7,1.8-6.5,0L67.3,80.7c-1.8-1.8-1.8-4.7,0-6.5l0,0c1.8-1.8,4.7-1.8,6.5,0
		L88.6,89C90.4,90.8,90.4,93.7,88.6,95.5z"/>
	<g>
		<path class="st6" d="M33.3,2.2c-2.1,1.3-2.8,4.1-1.5,6.3l14.6,23.8l-6.8-6.8c-1.8-1.8-4.7-1.8-6.4,0l-0.7,0.7
			c-1.6,1.6-1.7,4.1-0.5,5.9c-1.8-1.3-4.3-1.1-5.9,0.5l-0.7,0.7c-1.8,1.8-1.8,4.7,0,6.4l7.3,7.3L8.6,30.8c-2.1-1.4-4.9-0.9-6.3,1.2
			s-0.9,4.9,1.2,6.3l25.7,17.4c-0.4,1-0.9,2.5-1,4.3c-0.3,6.8,5.6,11.4,6.6,12.2c1.1,0.9,3.8,2.9,7.7,3.5c2.4,0.4,6.1-0.1,6.1-0.1
			l21.8,24.6c0.4-0.5,0.8-1.1,1.1-1.7c0.9-2.2-0.3-5.7,1.1-7.8c1.3-2,5-2.2,6.8-4c1.8-1.8,2-5.5,4-6.8c2.1-1.4,5.6-0.2,7.8-1.1
			c0.8-0.3,1.6-0.9,2.4-1.6c-7.8-7.3-15.6-14.7-23.3-22c0.1-0.8,0.2-1.7,0.2-2.6c0-6.5-4.2-11.3-8-15.6c-2.2-2.5-4.4-4.3-5.9-5.5
			l-17-27.8C38.2,1.5,35.4,0.9,33.3,2.2z"/>
	</g>
	<g class="st7">
		<g>
			<path class="st8" d="M25.2,40.3l7.3,7.3L8.6,31.4c-2.1-1.4-4.9-0.9-6.3,1.2c-1.4,2.1-0.9,4.9,1.2,6.3l25.7,17.4
				c-0.4,1-0.9,2.5-1,4.3c-0.3,6.8,5.6,11.4,6.6,12.2c1.1,0.9,3.8,2.9,7.7,3.5c2.4,0.4,6.1-0.1,6.1-0.1l21.8,24.6
				c0.4-0.5,0.8-1.1,1.1-1.7c0.9-2.2-0.3-5.7,1.1-7.8c0.6-0.8,1.5-1.4,2.6-1.8c-6.3-2.8-9.6-6.3-11.6-9.2c-2.1-3-5.3-9.3-9.7-14.7
				c-0.8-1-2.2-2.6-4-2.7c-1.6-0.1-2.2,1-4.6,1.5c-0.6,0.1-2.3,0.5-4.1,0c-3.1-0.8-3.2-3.5-6.7-4.8c-2.5-1-3.6-0.8-4.7-1.2
				c-2.6-0.9-5.4-5.2-5.6-20C24.5,39.1,24.9,39.7,25.2,40.3z"/>
		</g>
	</g>
	<g class="st9">
		<path class="st10" d="M33.8,1.3l5.3,18.6l7.2,11.8L41,26.3c3.2,3.1,10.4,10.5,15,18.5c1.3,2.3,2.4,4.5,3,7.4c1,4.8-0.4,6.2,0,9.8
			c0.4,3,1.5,4,12.7,16.3c4.2,4.6,6.6,7.3,8.4,6.6c1.8-0.7,0.8-4.2,3.3-5.7c2.2-1.3,4.3,0.3,7.8-1.1c0.8-0.3,1.6-0.9,2.4-1.6
			c-7.8-7.3-15.6-14.7-23.3-22c0.1-0.8,0.2-1.7,0.2-2.6c0-6.5-4.2-11.3-8-15.6c-2.2-2.5-4.4-4.3-5.9-5.5L39.5,3
			C38.3,1.1,35.8,0.3,33.8,1.3z"/>
	</g>
	<path class="st11" d="M33.3,2.2c-2.1,1.3-2.8,4.1-1.5,6.3l14.6,23.8c-3.1,0.8-6.1,2.5-8.5,4.9C35,40,33.3,43.4,32.6,47L8.6,30.8
		c-2.1-1.4-4.9-0.9-6.3,1.2c-1.4,2.1-0.9,4.9,1.2,6.3l25.7,17.4c-0.4,1-0.9,2.5-1,4.3c-0.3,6.8,5.6,11.4,6.6,12.2
		c1.1,0.9,3.8,2.9,7.7,3.5c2.4,0.4,6.1-0.1,6.1-0.1l21.8,24.6c0.4-0.5,0.8-1.1,1.1-1.7c0.9-2.2-0.3-5.7,1.1-7.8c1.3-2,5-2.2,6.8-4
		c1.8-1.8,2-5.5,4-6.8c2.1-1.4,5.6-0.2,7.8-1.1c0.8-0.3,1.6-0.9,2.4-1.6c-7.6-7.3-15.3-14.6-22.9-21.9c0-0.6-0.1-1.6-0.2-2.7
		c-1-7.5-5.4-12.6-8-15.6c-2.2-2.5-4.4-4.3-5.9-5.5l-17-27.8C38.2,1.5,35.4,0.9,33.3,2.2z"/>
	<g>
		<path class="st6" d="M52.8,45.9L52.8,45.9c-2,2-5.2,2-7.2,0l-13-13c-2-2-2-5.2,0-7.2l0,0c2-2,5.2-2,7.2,0l13,13
			C54.8,40.7,54.8,44,52.8,45.9z"/>
		<g>
			<path d="M51.7,44.9c-3.6,3.6-9.1-4.1-11.2-6.2c-2.2-2.2-10.4-8.2-6.8-11.8c3.5-3.5,8.8,3.8,11,5.9C47.2,35.3,55.1,40.8,51.7,44.9
				c-1.2,1.5,0.9,3.6,2.1,2.1c5.3-6.5-2.5-11.8-6.8-16c-3.7-3.7-9.7-11.9-15.5-6.2c-5.9,5.9,3,12.3,6.8,16
				c3.7,3.7,9.7,11.9,15.5,6.2C55.2,45.6,53.1,43.5,51.7,44.9z"/>
		</g>
	</g>
	<g>
		<path class="st6" d="M45.7,53L45.7,53c-2,2-5.2,2-7.2,0l-13-13c-2-2-2-5.2,0-7.2l0,0c2-2,5.2-2,7.2,0l13,13
			C47.7,47.8,47.7,51,45.7,53z"/>
		<g>
			<path d="M44.7,51.9c-3.6,3.6-9.1-4.1-11.2-6.2c-2.2-2.2-10.4-8.2-6.8-11.8c3.5-3.5,8.8,3.8,11,5.9C40.1,42.3,48,47.9,44.7,51.9
				c-1.2,1.5,0.9,3.6,2.1,2.1c5.3-6.5-2.5-11.8-6.8-16c-3.7-3.7-9.7-11.9-15.5-6.2c-5.9,5.9,3,12.3,6.8,16
				c3.7,3.7,9.7,11.9,15.5,6.2C48.2,52.7,46,50.6,44.7,51.9z"/>
		</g>
	</g>
	<g>
		<path class="st6" d="M29.2,55.6c1.3-1.9,2.6-3.2,3.6-4.1c0.1-0.1,1.8-1.6,4.4-3c0.7-0.4,1.8-0.9,3-0.9c0.7,0,1.2,0.2,1.4,0.2
			c0.8,0.2,1.3,0.6,1.6,0.9c0.3,0.4,0.7,0.9,1,1.3c0.5,0.8,0.6,1.5,0.6,1.9c0,1.5-0.9,2.7-1.5,3.5c-0.4,0.5-0.8,0.9-1,1.1
			c-0.7,0.6-2.3,1.6-2.7,1.9c-0.7,0.5-2.2,1.5-2.2,2.5c0.1,1.2,2.4,1.2,4,3.4c0.7,0.9,0.9,1.8,1.1,2.4"/>
		<g>
			<path d="M30.5,56.4c2-2.7,5.1-6.2,8.6-6.9c3-0.6,5.2,1.6,3.4,4.6c-0.8,1.4-2.4,2.2-3.6,3.1c-1.3,1-3.2,2.3-2.8,4.2
				c0.2,0.8,0.7,1.2,1.2,1.7c1.5,1.4,3.2,1.8,3.8,4.1c0.5,1.9,3.4,1.1,2.9-0.8c-0.5-1.9-1.5-3.4-3.1-4.6c-0.4-0.3-1.6-0.7-1.6-1.2
				c0-0.4,2.8-1.9,3.1-2.2c2.6-2,5-5.3,3.3-8.7c-4.3-8.6-14.4,0.5-17.8,5.2C26.8,56.4,29.4,57.9,30.5,56.4L30.5,56.4z"/>
		</g>
	</g>
	<path class="st8" d="M70.2,55.1"/>
	<path class="st8" d="M48.6,75.7"/>
</g>
</svg>
